<svg xmlns="http://www.w3.org/2000/svg" width="70.373" height="73.425" viewBox="0 0 70.373 73.425">
  <g id="hand" transform="matrix(0.875, 0.485, -0.485, 0.875, 43.054, -46.646)">
    <g id="Group_278" data-name="Group 278" transform="translate(7.434 57.777)">
      <g id="Group_277" data-name="Group 277">
        <path id="Path_251" data-name="Path 251" d="M106.869,99.787,96.057,87.906a5.5,5.5,0,0,0-7.784.017A5.382,5.382,0,0,0,86.881,90.3a5.508,5.508,0,0,0-8.63,2.873,5.51,5.51,0,0,0-7.232.5,5.442,5.442,0,0,0-1.38,2.321l-5.1-5.1a5.5,5.5,0,0,0-7.784,7.784L76.336,118.26l-11.611,1.823a6.441,6.441,0,0,0-5.5,6.346,4.318,4.318,0,0,0,4.313,4.313H90.648a15.711,15.711,0,0,0,11.183-4.632l4.523-4.523a15.8,15.8,0,0,0,.515-21.8Zm-2.548,19.766L99.8,124.077a12.855,12.855,0,0,1-9.15,3.79H63.534a1.438,1.438,0,0,1-1.438-1.438,3.558,3.558,0,0,1,3.057-3.5l14.421-2.266a1.436,1.436,0,0,0,.794-2.436L58.793,96.65a2.629,2.629,0,0,1,3.718-3.718L76.9,107.318a1.438,1.438,0,1,0,2.03-2.036l-5.875-5.875a2.629,2.629,0,0,1,3.718-3.718l5.878,5.878a1.438,1.438,0,1,0,2.03-2.036l-3-3A2.629,2.629,0,0,1,85.4,92.814l3.014,3.014c.006,0,0,0,0,0l0,0,0,0,0,0h0a0,0,0,0,1,0,0,1.438,1.438,0,0,0,2-2.062l-.124-.124a2.63,2.63,0,0,1,3.669-3.767l10.766,11.833a12.924,12.924,0,0,1-.423,17.831Z" transform="translate(-55.153 -86.302)" fill="#fff"/>
      </g>
    </g>
    <g id="Group_280" data-name="Group 280" transform="translate(0 53.333)">
      <g id="Group_279" data-name="Group 279" transform="translate(0 0)">
        <path id="Path_252" data-name="Path 252" d="M24.718,60.962A12.927,12.927,0,1,0,7.629,78.054a1.439,1.439,0,0,0,1.185-2.622A10.052,10.052,0,1,1,22.1,62.146a1.437,1.437,0,1,0,2.619-1.185Z" transform="translate(0 -53.333)" fill="#fff"/>
      </g>
    </g>
  </g>
</svg>
