<svg xmlns="http://www.w3.org/2000/svg" viewBox="0 0 64 80" x="0px" y="0px"><title>podium, ranking, winner, sport, champion</title><g data-name="Layer 21"><path d="M60,41.91H42.33V27.36a1,1,0,0,0-1-1H22.67a1,1,0,0,0-1,1v8.33H4a1,1,0,0,0-1,1V58.47a1,1,0,0,0,1,1H60a1,1,0,0,0,1-1V42.91A1,1,0,0,0,60,41.91ZM5,37.69H21.67V57.47H5Zm18.67-1V28.36H40.33V57.47H23.67ZM59,57.47H42.33V43.91H59Z"/><path d="M32,29.47a1,1,0,0,0-1,1v6.22a1,1,0,0,0,2,0V30.47A1,1,0,0,0,32,29.47Z"/><path d="M11.26,39.84a1,1,0,0,0-1,1v6.22a1,1,0,0,0,2,0V40.84A1,1,0,0,0,11.26,39.84Z"/><path d="M14.37,39.84a1,1,0,0,0-1,1v6.22a1,1,0,0,0,2,0V40.84A1,1,0,0,0,14.37,39.84Z"/><path d="M47.56,54.28a1,1,0,0,0,1-1V47.06a1,1,0,0,0-2,0v6.22A1,1,0,0,0,47.56,54.28Z"/><path d="M50.67,54.28a1,1,0,0,0,1-1V47.06a1,1,0,0,0-2,0v6.22A1,1,0,0,0,50.67,54.28Z"/><path d="M53.78,54.28a1,1,0,0,0,1-1V47.06a1,1,0,0,0-2,0v6.22A1,1,0,0,0,53.78,54.28Z"/><path d="M40.21,10.4a1,1,0,0,0-1-.7H34.34L32.82,5.21a1,1,0,0,0-1.89,0L29.42,9.7H24.49a1,1,0,0,0-.57,1.82l3.95,2.76-1.5,4.46a1,1,0,0,0,1.52,1.14l4-2.79,4,2.79a1,1,0,0,0,1.52-1.14l-1.5-4.46,3.95-2.76A1,1,0,0,0,40.21,10.4Zm-6.09,2.67a1,1,0,0,0-.37,1.14l.77,2.28L32.45,15a1,1,0,0,0-1.15,0L29.23,16.5,30,14.21a1,1,0,0,0-.37-1.14l-2-1.37h2.47a1,1,0,0,0,.95-.68l.8-2.36.8,2.36a1,1,0,0,0,.95.68h2.47Z"/><path d="M21.79,21.85a1,1,0,0,0-1-.7H15.92L14.4,16.67a1,1,0,0,0-1.89,0L11,21.15H6.07A1,1,0,0,0,5.5,23l3.95,2.76L7.95,30.2a1,1,0,0,0,1.52,1.14l4-2.79,4,2.79A1,1,0,0,0,19,30.19l-1.5-4.46,4-2.76A1,1,0,0,0,21.79,21.85ZM15.7,24.53a1,1,0,0,0-.37,1.14l.77,2.28L14,26.5a1,1,0,0,0-1.15,0L10.81,28l.77-2.28a1,1,0,0,0-.37-1.14l-2-1.37h2.47a1,1,0,0,0,.95-.68l.79-2.36.8,2.36a1,1,0,0,0,.95.68h2.47Z"/><path d="M58.88,21.85a1,1,0,0,0-1-.7H53l-1.51-4.49a1,1,0,0,0-1.89,0l-1.51,4.49H43.16A1,1,0,0,0,42.59,23l4,2.76L45,30.19a1,1,0,0,0,1.52,1.14l4-2.79,4,2.79a1,1,0,0,0,1.52-1.14l-1.5-4.46L58.5,23A1,1,0,0,0,58.88,21.85Zm-6.09,2.67a1,1,0,0,0-.37,1.14L53.19,28,51.12,26.5a1,1,0,0,0-1.15,0L47.9,27.95l.77-2.28a1,1,0,0,0-.37-1.14l-2-1.37H48.8a1,1,0,0,0,.95-.68l.8-2.36.79,2.36a1,1,0,0,0,.95.68h2.47Z"/></g><text x="0" y="79" fill="#000000" font-size="5px" font-weight="bold" font-family="'Helvetica Neue', Helvetica, Arial-Unicode, Arial, Sans-serif">Created by Fauzan Adiima</text><text x="0" y="84" fill="#000000" font-size="5px" font-weight="bold" font-family="'Helvetica Neue', Helvetica, Arial-Unicode, Arial, Sans-serif">from the Noun Project</text></svg>