<svg xmlns="http://www.w3.org/2000/svg" xmlns:xlink="http://www.w3.org/1999/xlink" version="1.1" x="0px" y="0px" viewBox="0 0 64 80" enable-background="new 0 0 64 64" xml:space="preserve"><g><path d="M41,25c-4.411,0-8,3.589-8,8s3.589,8,8,8s8-3.589,8-8S45.411,25,41,25z M41,35c-1.103,0-2-0.897-2-2s0.897-2,2-2   s2,0.897,2,2S42.103,35,41,35z M43.019,29.567c-0.316-0.186-0.656-0.33-1.019-0.425V27.09c0.909,0.154,1.749,0.51,2.471,1.025   L43.019,29.567z M40,29.142c-0.363,0.094-0.704,0.238-1.019,0.425l-1.452-1.452C38.251,27.6,39.091,27.244,40,27.09V29.142z    M37.567,30.981c-0.186,0.316-0.33,0.656-0.425,1.019H35.09c0.154-0.909,0.51-1.749,1.024-2.471L37.567,30.981z M37.142,34   c0.094,0.363,0.238,0.704,0.425,1.019l-1.452,1.452C35.6,35.749,35.244,34.909,35.09,34H37.142z M38.981,36.433   c0.316,0.186,0.656,0.33,1.019,0.425v2.052c-0.909-0.154-1.749-0.51-2.471-1.025L38.981,36.433z M42,36.858   c0.363-0.094,0.704-0.238,1.019-0.425l1.452,1.452C43.749,38.4,42.909,38.756,42,38.91V36.858z M44.433,35.019   c0.186-0.316,0.33-0.656,0.425-1.019h2.052c-0.154,0.909-0.51,1.749-1.024,2.471L44.433,35.019z M44.858,32   c-0.094-0.363-0.238-0.704-0.425-1.019l1.452-1.452C46.4,30.251,46.756,31.091,46.91,32H44.858z"/><path d="M30,33c0-3.86-3.141-7-7-7s-7,3.14-7,7s3.141,7,7,7S30,36.86,30,33z M18,33c0-2.757,2.243-5,5-5s5,2.243,5,5s-2.243,5-5,5   S18,35.757,18,33z"/><path d="M26,33c0-1.654-1.346-3-3-3s-3,1.346-3,3s1.346,3,3,3S26,34.654,26,33z M22,33c0-0.551,0.448-1,1-1s1,0.449,1,1   s-0.448,1-1,1S22,33.551,22,33z"/><path d="M40,47H24c-0.553,0-1,0.448-1,1v4c0,0.552,0.447,1,1,1h16c0.553,0,1-0.448,1-1v-4C41,47.448,40.553,47,40,47z M33,49h2v2   h-2V49z M31,51h-2v-2h2V51z M25,49h2v2h-2V49z M39,51h-2v-2h2V51z"/><path d="M56,28h-1.275l0.274-6.96c0.011-0.272-0.09-0.537-0.278-0.732C54.532,20.111,54.272,20,54,20h-7v-4h2.184   c0.414,1.161,1.514,2,2.816,2c1.654,0,3-1.346,3-3s-1.346-3-3-3c-1.302,0-2.402,0.839-2.816,2H46c-0.553,0-1,0.448-1,1v5H33v-2h8   c0.553,0,1-0.448,1-1v-7h2v1c0,0.552,0.447,1,1,1h4c0.553,0,1-0.448,1-1V7c0-0.552-0.447-1-1-1h-4c-0.553,0-1,0.448-1,1v1h-3   c-0.553,0-1,0.448-1,1v7h-7v-3h4c0.553,0,1-0.448,1-1V7.816C39.161,7.402,40,6.302,40,5c0-1.654-1.346-3-3-3s-3,1.346-3,3   c0,1.302,0.839,2.402,2,2.816V11h-3V8.445C33,4.891,30.108,2,26.555,2h-0.109c-3.404,0-6.193,2.654-6.423,6h-0.567   C16.447,8,14,10.447,14,13.455v0.748c-2.303,0.639-4,2.749-4,5.252V20c-0.272,0-0.532,0.111-0.721,0.307   c-0.188,0.196-0.289,0.46-0.278,0.732L9.275,28H8c-1.654,0-3,1.346-3,3v8c0,1.654,1.346,3,3,3h2.044C11.108,53.284,20.564,62,32,62   c11.432,0,20.887-8.711,21.955-20H56c1.654,0,3-1.346,3-3v-8C59,29.346,57.654,28,56,28z M52,14c0.552,0,1,0.449,1,1s-0.448,1-1,1   s-1-0.449-1-1S51.448,14,52,14z M46,8h2v2h-2V8z M37,4c0.552,0,1,0.449,1,1s-0.448,1-1,1s-1-0.449-1-1S36.448,4,37,4z M57,31v1h-4   v-2h0.685H56C56.552,30,57,30.449,57,31z M53,34h4v2h-4V34z M12,19.455C12,17.55,13.55,16,15.455,16H17v-2h-1v-0.545   C16,11.55,17.55,10,19.455,10H24V8h-1.955c0.227-2.24,2.102-4,4.4-4h0.109C29.006,4,31,5.994,31,8.445V20H12V19.455z M8,30h2.315   H11v2H7v-1C7,30.449,7.448,30,8,30z M11,36H7v-2h4V36z M7,39v-1h4v2h-0.053H8C7.448,40,7,39.551,7,39z M32,60   c-10.325,0-18.898-7.805-19.971-18c0.075-0.002,0.141-0.03,0.21-0.048c0.053-0.013,0.11-0.015,0.159-0.036   c0.072-0.031,0.13-0.083,0.193-0.13c0.039-0.03,0.086-0.049,0.12-0.084c0.059-0.06,0.098-0.135,0.14-0.208   c0.022-0.037,0.054-0.067,0.071-0.107C12.972,41.267,13,41.137,13,41V29c0-0.552-0.447-1-1-1h-0.724l-0.236-6H32h20.96l-0.236,6H52   c-0.553,0-1,0.448-1,1v12c0,0.137,0.028,0.267,0.078,0.386c0.018,0.042,0.051,0.074,0.075,0.113   c0.042,0.071,0.079,0.145,0.137,0.203c0.037,0.038,0.087,0.06,0.131,0.091c0.059,0.044,0.114,0.093,0.182,0.123   c0.051,0.022,0.11,0.024,0.166,0.037C51.836,41.97,51.9,41.998,51.973,42C50.922,52.174,42.339,60,32,60z M56,40h-2.947H53v-2h4v1   C57,39.551,56.552,40,56,40z"/><polygon points="27,14 25,14 25,16 23,16 23,18 29,18 29,16 27,16  "/><rect x="26" y="6" width="2" height="2"/><rect x="27" y="10" width="2" height="2"/><rect x="20" y="12" width="2" height="2"/><rect x="19" y="16" width="2" height="2"/></g><text x="0" y="79" fill="#000000" font-size="5px" font-weight="bold" font-family="'Helvetica Neue', Helvetica, Arial-Unicode, Arial, Sans-serif">Created by Petai Jantrapoon</text><text x="0" y="84" fill="#000000" font-size="5px" font-weight="bold" font-family="'Helvetica Neue', Helvetica, Arial-Unicode, Arial, Sans-serif">from the Noun Project</text></svg>